<svg version="1.2" baseProfile="tiny-ps" xmlns="http://www.w3.org/2000/svg" viewBox="0 0 1272 804" width="100" height="63">
	<title>pedidos-ya-seeklogo</title>
	<style>
		tspan { white-space:pre }
		.s0 { fill: #ff352e } 
	</style>
	<g id="Layer 1">
		<g id="&lt;Group&gt;">
			<g id="&lt;Group&gt;">
				<path id="&lt;Path&gt;" class="s0" d="m570.98 611.54c-0.26 15.04-10.97 25.95-25.46 25.95c-12.7 0-20.15-7.15-19.94-19.14c0.26-15.04 10.97-25.95 25.46-25.95c12.69 0 20.15 7.15 19.94 19.14z" />
				<path id="&lt;Compound Path&gt;" fill-rule="evenodd" class="s0" d="m506.79 600.81l-33.68 167.99c-0.26 1.33-1.42 2.28-2.77 2.28l-31.72 0.02c-0.83 0-1.63-0.37-2.16-1.01c-0.53-0.64-0.77-1.48-0.62-2.3c0.7-3.68 1.32-6.87 1.98-9.9c-9.93 11.01-23.23 17.07-38.38 17.07c-31.54 0-52.74-23.69-52.74-58.94c0-42.85 28.05-73.94 66.7-73.94c19.42 0 35.03 8.66 43.02 22.73c0.51-2.82 4.86-24.51 13.04-65.07c0.26-1.33 1.42-2.28 2.77-2.28h31.78c0.84 0 1.64 0.38 2.18 1.03c0.53 0.65 0.75 1.5 0.6 2.33zm-61.6 94.57c-0.8-3.8-2.27-7.09-4.37-9.79c-2.09-2.68-4.76-4.79-7.94-6.27c-3.2-1.49-6.86-2.24-10.87-2.24c-4.58 0-8.96 0.96-13 2.86c-4.1 1.92-7.73 4.54-10.78 7.78c-3.09 3.27-5.61 7.15-7.5 11.53c-1.89 4.39-2.98 9.12-3.24 14.04c-0.21 4.07 0.22 7.81 1.29 11.1c1.05 3.23 2.65 6.03 4.76 8.29c2.11 2.26 4.69 4.03 7.65 5.24c6.37 2.6 15.05 2.43 22.06-0.49c3.75-1.56 7.14-3.75 10.08-6.51c2.98-2.8 5.53-6.13 7.58-9.92c2.06-3.79 3.5-8.02 4.29-12.54c0.8-4.8 0.8-9.21-0.01-13.08z" />
				<path id="&lt;Path&gt;" class="s0" d="m558.29 656.71c0.55 0.6 0.78 1.39 0.61 2.15l-22.2 110.13c-0.27 1.22-1.47 2.1-2.86 2.1h-32.83c-0.87 0-1.69-0.35-2.25-0.95c-0.55-0.6-0.78-1.39-0.61-2.15l22.21-110.12c0.27-1.22 1.47-2.1 2.86-2.1h32.82c0.87 0 1.69 0.35 2.25 0.95z" />
				<path id="&lt;Compound Path&gt;" fill-rule="evenodd" class="s0" d="m67.44 770.03l-16.36 0.11h-13.04c-0.86 0-1.68-0.39-2.22-1.05c-0.55-0.66-0.85-1.54-0.68-2.38l33.4-166.92c0.27-1.36 1.45-2.33 2.83-2.33h65.89c38.37 0 61.27 19.94 61.27 53.35c0 38.12-27.53 61.8-71.84 61.8c-24.77-0.17-37.63-0.25-38.6-0.25c-0.17 0.85-6.34 33.86-9.68 48.74c-1.36 6.03-5.01 9.01-10.97 8.94zm89.4-117.64c0-12.28-7.98-19.05-22.48-19.05c-19.18-0.13-29.3-0.23-30.36-0.27c-0.27 1.72-8.51 42.56-8.71 43.56c0.65 0 11.57-0.06 32.73-0.17c18.32 0 28.83-8.77 28.83-24.07z" />
				<path id="&lt;Compound Path&gt;" fill-rule="evenodd" class="s0" d="m862.58 701.8c0 42.4-31.31 73.17-74.45 73.17c-38.48 0-63.34-23.44-63.34-59.72c0-42.4 31.31-73.17 74.46-73.17c38.47 0 63.34 23.44 63.34 59.72zm-39.81 2.35c0-15.39-9.74-24.59-26.04-24.59c-18.62 0-32.13 14.02-32.13 33.34c0 15.39 9.74 24.59 26.05 24.59c18.62 0 32.13-14.02 32.13-33.34z" />
				<path id="&lt;Compound Path&gt;" fill-rule="evenodd" class="s0" d="m730.08 600.81l-33.68 167.99c-0.26 1.33-1.42 2.28-2.77 2.28l-31.72 0.02c-0.83 0-1.63-0.37-2.16-1.01c-0.53-0.64-0.77-1.48-0.62-2.3c0.7-3.68 1.32-6.87 1.98-9.9c-9.93 11.01-23.23 17.07-38.38 17.07c-31.54 0-52.74-23.69-52.74-58.94c0-42.85 28.05-73.94 66.7-73.94c19.42 0 35.03 8.66 43.02 22.73c0.51-2.82 4.86-24.51 13.04-65.07c0.26-1.33 1.42-2.28 2.77-2.28h31.78c0.84 0 1.64 0.38 2.18 1.03c0.54 0.65 0.75 1.5 0.6 2.33zm-61.06 94.57c-0.8-3.8-2.27-7.09-4.37-9.79c-2.09-2.68-4.76-4.79-7.94-6.27c-3.2-1.49-6.86-2.24-10.87-2.24c-4.58 0-8.96 0.96-13 2.86c-4.1 1.92-7.73 4.54-10.78 7.78c-3.09 3.27-5.61 7.15-7.5 11.53c-1.89 4.39-2.98 9.12-3.24 14.04c-0.21 4.07 0.22 7.81 1.29 11.1c1.05 3.23 2.65 6.03 4.76 8.29c2.11 2.26 4.69 4.03 7.65 5.24c6.37 2.6 15.05 2.43 22.06-0.49c3.75-1.56 7.14-3.75 10.08-6.51c2.98-2.8 5.53-6.13 7.58-9.92c2.06-3.79 3.5-8.02 4.29-12.54c0.8-4.8 0.8-9.21-0.01-13.08z" />
				<path id="&lt;Path&gt;" class="s0" d="m968.8 655.41l-10.99 24.69c-0.31 0.69-0.88 1.23-1.59 1.49c-0.7 0.27-1.5 0.23-2.17-0.1c-11.15-5.33-22.51-7.95-31.18-7.19c-8.73 0.77-8.37 4.83-8.26 6.16c0.21 2.39 0.69 3.66 9.82 8.66l15.57 7.87c16.71 8.44 24.06 18.13 25.41 33.43c2.22 25.35-13.94 41.43-44.33 44.09c-20.29 1.78-40.09-3.48-57.27-15.21c-1.2-0.82-1.57-2.43-0.86-3.7l13.85-24.42c0.38-0.66 1-1.14 1.75-1.33c0.71-0.18 1.52-0.07 2.17 0.33c14.08 8.69 27.23 12.78 38.04 11.84c3.54-0.31 9.42-1.6 8.97-6.74c-0.2-2.24-0.86-4-7.92-7.78l-17.27-9.04c-15.66-8.3-23.88-19.32-25.14-33.69c-2.09-23.82 13.57-40.1 40.86-42.5c15.59-1.37 32.59 1.91 49.15 9.46c1.4 0.64 2.02 2.28 1.4 3.69z" />
				<path id="&lt;Path&gt;" class="s0" d="m1138.79 601.35l-81.84 105.85l-11.11 56.88c-0.8 4.09-4.39 7.05-8.56 7.05h-31.78c-0.91 0-1.78-0.41-2.36-1.11c-0.58-0.7-0.82-1.63-0.65-2.53l12.5-61.32l-41.66-105.52c-0.33-0.94-0.19-1.97 0.39-2.78c0.58-0.81 1.51-1.29 2.5-1.29h39.29c1.36 0 2.56 0.9 2.94 2.2c14.6 41.73 22.18 64.5 22.74 68.32c2.08-4.04 17.98-27.13 47.7-69.28c0.57-0.85 1.52-1.35 2.54-1.35h44.91c1.15 0 2.21 0.65 2.73 1.69c0.52 1.03 0.41 2.27-0.28 3.2z" />
				<path id="&lt;Compound Path&gt;" fill-rule="evenodd" class="s0" d="m1235.04 648.27l-23.78 119.45c-0.25 1.29-1.39 2.22-2.7 2.22l-30.9 0.02c-0.81 0-1.58-0.36-2.1-0.98c-0.52-0.62-0.75-1.44-0.6-2.24c0.52-2.77 1.32-6.78 1.95-9.84c-12.1 10.3-25.41 14.87-40.71 14.15c-28.46-1.34-47.13-20.51-47.42-49.09c-0.33-32.84 19.96-62.81 50.44-74.41c9.26-3.53 18.86-5.12 28.76-4.51c10.82 0.67 21.76 5.87 28.76 14.36l0.03-0.15c0.5-2.75 1.14-6.1 1.92-10.04c0.25-1.29 1.39-2.22 2.7-2.22h30.96c0.82 0 1.6 0.37 2.12 1c0.52 0.63 0.74 1.47 0.58 2.27zm-48.52 46.77c-0.76-3.63-2.17-6.77-4.17-9.34c-1.99-2.56-4.54-4.57-7.58-5.98c-3.06-1.42-6.54-2.14-10.37-2.14c-4.37 0-8.55 0.92-12.41 2.73c-3.91 1.83-7.38 4.33-10.29 7.42c-2.95 3.12-5.36 6.82-7.15 11.01c-1.81 4.19-2.85 8.7-3.09 13.4c-0.2 3.89 0.21 7.45 1.23 10.59c1 3.09 2.53 5.75 4.54 7.91c2.01 2.16 4.47 3.84 7.3 5c6.08 2.48 14.37 2.32 21.05-0.47c3.58-1.49 6.81-3.58 9.62-6.22c2.84-2.67 5.28-5.85 7.24-9.47c1.96-3.62 3.34-7.65 4.1-11.97c0.77-4.59 0.77-8.79-0.01-12.48z" />
				<path id="&lt;Compound Path&gt;" fill-rule="evenodd" class="s0" d="m332.33 693.65c0 6.95-1.16 13.55-3.17 22.59c-0.29 1.29-1.43 2.21-2.76 2.21l-88.99 0.28c0.23 14.46 10.8 22.78 28.99 22.78c8.89 0 16.95-2.03 25.48-6.58c1.06-0.57 2.38-0.4 3.22 0.47l19.52 20.17c1.17 1.21 0.96 3.24-0.45 4.18c-15.68 10.46-30.56 15.08-48.55 15.08c-39.7 0-64.37-22.78-64.37-59.46c0-42.54 30.77-73.42 73.16-73.42c35.72 0 57.91 19.81 57.91 51.7zm-34.04-2.34c-0.5-14.17-8.57-21.48-24.63-21.48c-15.79 0-26.39 7.28-32.26 21.35c2.73 0 54.35 0.13 56.89 0.13z" />
			</g>
			<path id="&lt;Path&gt;" class="s0" d="m892.41 187.03c0 88.09-71.67 159.75-159.75 159.75h-148.93l-21.83 79.43c-3.15 12.1-16.49 35.15-44.27 35.15h-74.14c-2.3 0-4.46-1.06-5.87-2.87c-1.41-1.81-1.91-4.17-1.34-6.4l55.32-218.51c0.84-3.3 3.81-5.62 7.22-5.62h233.85h0c22.04 0 39.91-17.87 39.91-39.91c0-22.04-17.87-39.91-39.91-39.91l-208.53-0.39c-58.87 0-91.3-25.3-91.3-71.25v-41.89c0-4.18 3.39-7.56 7.56-7.56h264.19l22.99 0.23h5.08c88.09 0 159.75 71.67 159.75 159.76z" />
		</g>
	</g>
</svg>