<svg version="1.2" baseProfile="tiny-ps" xmlns="http://www.w3.org/2000/svg" viewBox="0 0 612 567" width="612" height="567">
	<title>rappi-logo-svg</title>
	<style>
		tspan { white-space:pre }
		.s0 { fill: #fe7077 } 
		.t1 { font-size: 43px;fill: #000000;font-family: "sans" } 
	</style>
	<g id="XMLID_1_">
		<g id="XMLID_23_">
			<path id="XMLID_31_" fill-rule="evenodd" class="s0" d="m282.8 316.8c-4.3 2.1-7.4 6.1-12.3 7.4c-7.6 2-10.5 1.2-14.6-5.4c-1.5-2.3-2.6-1.9-4.3-0.5c-2.1 1.6-4.2 3.4-6.5 4.6c-11.9 6.1-23.9 0.3-24.9-13c-1.7-21.5 5-40.3 20.8-55.5c4.6-4.4 10.5-6.4 16.7-7.2c6.4-0.8 10.6 1.9 14.6 9.6c3.5-5.9 8.7-7.4 14.9-5.9c5.9 1.4 7.8 5.2 5.4 10.8c-4.6 10.7-9.5 21.2-12.6 32.5c-0.8 3.1-2.5 7.6 0.3 9.1c2.7 1.5 5.1-2.7 7.3-4.9c3.3-3.4 5.1-7.8 6.6-12.2c3.3-9.6 6.9-19.1 11-28.3c3.7-8.3 11.6-10.5 18.6-4.8c2.2 1.8 3.2 1.3 4.9-0.2c1.6-1.4 3.5-2.6 5.4-3.6c12.4-6.5 23.5-0.3 24.2 13.7c0.9 15.4-4.7 29-12.5 41.8c-0.7 1.1-1.5 2.2-2.3 3.4c5.9-0.8 12.7-7.8 15.6-16.2c3.8-11.2 8-22.2 12.7-33c4.3-9.9 10.8-11.8 19.7-5.4c1.8 1.3 2.5 0.7 3.7-0.3c2.1-1.9 4.5-3.4 7.1-4.6c11.8-5.4 21.9 0.6 23.1 13.6c1.3 15.3-4.3 28.7-11.7 41.5c-0.7 1.2-1.4 2.3-2 3.4c-0.3 0.4-1.4 0.6-0.7 1.3c0.5 0.5 1.2 0.1 1.6-0.5c7.4-4 12.1-10.2 14.6-18.2c3.6-11.4 7.7-22.6 13.6-33.1c3.1-5.5 7-7.3 13.3-6.2c7.1 1.3 9.1 5 6.3 11.6c-4.5 10.5-9.4 20.9-12.3 32.1c-0.8 3-2.3 7.5 0 8.8c3.1 1.6 5.6-2.6 7.8-4.9c2.6-2.8 4.9-5.9 7.1-9c1.7-2.4 3.7-3.4 6.3-1.8c2.7 1.7 1.6 3.9 0.2 6c-6.2 9.5-12.9 18.6-22 25.7c-0.9 0.7-1.8 1.5-2.8 2.1c-11.4 7.7-19.9 3.9-21.7-10.3c-6.1 4-12 7.8-18.6 10.5c-7.6 3.1-15.5 3.7-23.5 3.4c-3.7-0.2-5.9-2.8-9-5.7c-2.6 9.2-5.1 17.9-7.5 26.5c-0.3 1.1-0.5 2.3-0.8 3.4c-1.6 7.1-3.2 8.7-8.2 8.2c-6.2-0.6-11.1-5.2-11.3-10.7c-0.3-5.3 1.7-10.1 2.9-15.1c1.4-5.6 3.1-11.1 4.8-17.3c-15.3 8.1-29.8 15.9-47.1 6.4c-2.9 7.4-4.9 16.1-7.2 24.6c-0.3 1.1-0.6 2.3-0.8 3.4c-1.9 8.2-3.3 9.5-9.3 8.5c-7.2-1.2-11.6-6.6-10.2-13.3c1.6-7.8 3.9-15.4 5.9-23.2c0.3-1.1 0.4-2.3 0.6-3.4c0.4-0.3 0.6-0.6 0.1-0.9c-0.5 0.2-0.8 0.6-1 0.7zm53.5-50.1c-0.4-2.2 0.6-4.4-1.2-5.2c-1.9-0.9-3 1-4 2.2c-11 12.3-16.3 27.1-18.8 43.1c-0.2 1.6-0.4 3.7 1.4 4.4c1.5 0.6 2.7-0.9 3.7-2c10.7-12.5 16.2-27.2 18.9-42.5zm67 0.4c-0.4-2.4 0.7-4.8-1.2-5.7c-1.9-0.9-3.3 1.2-4.4 2.5c-10.3 12.5-16 27-18.5 42.8c-0.3 1.6-0.3 3.8 1.2 4.6c1.7 0.9 3-1.1 4-2.2c10.6-12.3 16.2-26.8 18.9-42zm-140 1.1c-0.7-2.5 1.2-6-1.6-6.9c-2.5-0.8-4.1 2.4-5.4 4.4c-7.9 12.1-13.3 25.2-14.2 39.8c-0.1 1.8-0.8 4.5 1.5 5.2c1.9 0.6 3.2-1.5 4.2-2.9c8.9-11.8 13.7-25.2 15.5-39.6z" />
			<path id="XMLID_30_" class="s0" d="m173 301.7c-1.6 6.4-3.3 12.7-4.9 19.1c-1.2 4.9-3.7 6.7-8.5 6.1c-9-1-14.1-7.5-12.3-16.4c4.8-23.6 13.2-46 22.9-67.9c1.9-4.3 5.5-5 9.4-5.4c14.2-1.3 16.2 1.4 10.8 14.3c-3.2 7.8-6.1 15.7-9.3 23.9c14.1-3.5 26.5-20.2 25.9-34c-0.4-7.8-6.1-13.1-14.6-13.3c-15-0.4-25.4 7.5-33.4 19.3c-3.1 4.6-5.3 9.6-5.9 15.2c-0.7 6.1-5.2 8.3-10.6 5.2c-5.4-3.1-7.9-9.7-6-16.6c1.9-7 5.9-12.7 11.2-17.4c19.5-17.1 41.8-21.4 66-12.4c20.6 7.7 24.8 29 9.5 45.7c-6.9 7.6-15.6 12.4-25.2 15.7c-3.4 1.1-4.4 2.7-4 6.1c1.3 11.7 3.6 23 11 32.7c8.5 11.1 19.9 14 32.7 8.4c1.7-0.7 3.3-1.6 5-2.1c1.7-0.5 3.3 0 4.3 1.7c1 1.7 0.5 3.1-0.6 4.6c-9.2 11.5-30.7 18.4-44.1 13.9c-13.6-4.6-20.2-15.5-24.5-28.3c-1.9-5.9-2.7-12-4.8-18.1z" />
			<path id="XMLID_29_" class="s0" d="m473.9 229.1c-0.3 8.4-7.5 15.2-15.6 14.9c-8.2-0.4-14.5-7.2-14.2-15.6c0.3-8 7.5-14.7 15.6-14.3c7.8 0.3 14.5 7.3 14.2 15z" />
			<path id="XMLID_25_" class="s0" d="m412.3 308.3c-0.4 0.6-1.2 0.9-1.6 0.5c-0.7-0.7 0.4-0.9 0.7-1.3c0.2 0.2 0.6 0.5 0.9 0.8z" />
			<text id="tspan838" style="transform: matrix(1,0,0,1,67,634)" >
				<tspan x="0" y="0" class="t1">LOGODOWNLOAD.ORG
</tspan>
			</text>
		</g>
	</g>
</svg>